<?xml version="1.0" encoding="UTF-8" standalone="no"?>
<svg width="148px" height="25px" viewBox="0 0 148 25" version="1.1" xmlns="http://www.w3.org/2000/svg" xmlns:xlink="http://www.w3.org/1999/xlink">
    <!-- Generator: Sketch 41 (35326) - http://www.bohemiancoding.com/sketch -->
    <title>Logo_mango</title>
    <desc>Created with Sketch.</desc>
    <defs></defs>
    <g id="Symbols" stroke="none" stroke-width="1" fill="none" fill-rule="evenodd">
        <g id="HeaderGenerico_1366" transform="translate(-30.000000, -18.000000)" fill="#1A1918">
            <g id="Header" transform="translate(0.000000, 16.000000)">
                <g id="Logo_mango" transform="translate(30.000000, 2.000000)">
                    <polyline id="Fill-1" points="14.9792824 11.4539404 17.2447602 14.9504011 21.8012149 7.88225957 21.8012149 23.5388096 25.7259751 23.5388096 25.7259751 0.76473883 21.7205115 0.76473883 14.9792824 11.4539404"></polyline>
                    <polyline id="Fill-2" points="3.96971226 0.76473883 0 0.76473883 0 23.5388096 3.93448668 23.5388096 3.93448668 7.88225957 12.8681137 21.7844388 15.1462096 18.236808 3.96971226 0.76473883"></polyline>
                    <polyline id="Fill-3" points="49.3284263 16.479367 52.9600782 23.5388096 57.6934494 23.5388096 45.8187496 0.76473883 41.5511972 0.76473883 41.5480426 0.772158511 47.4935417 12.849608 39.5927602 12.849608 41.6547709 8.91257181 39.5036448 4.63346277 29.4982664 23.5388096 33.9251226 23.5388096 37.6653428 16.4809021 49.3284263 16.479367"></polyline>
                    <polyline id="Fill-4" points="83.9002274 0.76473883 79.9641634 0.76473883 79.9641634 11.8241569 83.9002274 15.6708777 83.9002274 0.76473883"></polyline>
                    <polyline id="Fill-5" points="64.9047034 0.76473883 60.9008171 0.76473883 60.9008171 23.5388096 64.8376696 23.5388096 64.8376696 6.52138777 80.9696696 23.5388096 83.9002274 23.5388096 83.9002274 20.7715245 64.9047034 0.76473883"></polyline>
                    <path d="M111.402991,7.08451596 C109.528938,5.19019468 106.638863,3.97720479 103.396533,3.97720479 C98.2228419,3.97720479 93.9458259,7.06865319 93.2633961,11.0806537 L88.9301243,11.0806537 C89.4963623,4.85323883 96.0435879,0.263526596 103.449897,0.263526596 C107.855197,0.263526596 111.812817,1.86003723 114.47708,4.42903777 L111.402991,7.08451596" id="Fill-6"></path>
                    <path d="M103.031133,20.3580691 C98.7110053,20.3580691 95.0338757,18.0799713 93.6619183,14.8928346 L89.2411083,14.8928346 C90.7034956,20.3862128 96.4513108,24.05 103.275872,24.05 C104.860497,24.05 106.684078,23.8975128 108.198252,23.5319016 C111.615133,22.7093404 115.346679,20.5476548 115.346679,17.135625 L115.346679,11.0806537 L102.985918,11.0806537 L102.976455,14.8928346 L111.396419,14.8928346 L111.396419,16.6234112 C111.396419,18.5346186 108.462707,19.6401511 106.667254,20.0277654 C105.701442,20.2367957 104.460924,20.3580691 103.460149,20.3580691 L103.031133,20.3580691" id="Fill-7"></path>
                    <path d="M147.884071,12.1731378 C147.884071,5.38105957 141.54925,0.112062766 133.768604,0.112062766 C126.234536,0.112062766 119.615808,5.13774521 119.615808,11.8072707 C119.615808,18.095834 124.813947,23.1345649 131.816476,23.9335878 L131.816476,20.1288266 C127.235311,19.3942782 123.772689,16.0630973 123.772689,12.0567255 C123.772689,7.51204309 128.225044,3.8249734 133.71524,3.8249734 C139.208064,3.8249734 143.658842,7.51204309 143.658842,12.0567255 C143.658842,16.0321394 140.250636,19.341317 135.722835,20.1106612 L135.722835,23.9236096 C142.441982,23.1286803 147.884071,18.278 147.884071,12.1731378" id="Fill-8"></path>
                </g>
            </g>
        </g>
    </g>
</svg>